<mxfile host="Electron" modified="2025-05-25T07:07:52.090Z" agent="Mozilla/5.0 (X11; Linux x86_64) AppleWebKit/537.36 (KHTML, like Gecko) draw.io/22.1.2 Chrome/114.0.5735.289 Electron/25.9.4 Safari/537.36" etag="bSsj4RGdbvCIYGBV-7VU" version="22.1.2" type="device">
  <diagram name="Page-1" id="-yB3LiYqmCC6OmoM3hbV">
    <mxGraphModel dx="814" dy="511" grid="1" gridSize="10" guides="1" tooltips="1" connect="1" arrows="1" fold="1" page="1" pageScale="1" pageWidth="827" pageHeight="1169" math="0" shadow="0">
      <root>
        <mxCell id="0" />
        <mxCell id="1" parent="0" />
        <mxCell id="oIPuPfSTGMywHN4HT05y-1" value="test.c&lt;br&gt;[Source file]" style="html=1;outlineConnect=0;whiteSpace=wrap;fillColor=#AFFFAF;shape=mxgraph.archimate3.application;appType=artifact;archiType=square;" vertex="1" parent="1">
          <mxGeometry x="80" y="520" width="150" height="75" as="geometry" />
        </mxCell>
        <mxCell id="oIPuPfSTGMywHN4HT05y-2" value="simulation.h&lt;br&gt;[Header file]" style="html=1;outlineConnect=0;whiteSpace=wrap;fillColor=#AFFFAF;shape=mxgraph.archimate3.application;appType=artifact;archiType=square;" vertex="1" parent="1">
          <mxGeometry x="80" y="330" width="150" height="75" as="geometry" />
        </mxCell>
        <mxCell id="oIPuPfSTGMywHN4HT05y-3" value="simulation.c&lt;br&gt;[Source file]" style="html=1;outlineConnect=0;whiteSpace=wrap;fillColor=#AFFFAF;shape=mxgraph.archimate3.application;appType=artifact;archiType=square;" vertex="1" parent="1">
          <mxGeometry x="80" y="240" width="150" height="75" as="geometry" />
        </mxCell>
        <mxCell id="oIPuPfSTGMywHN4HT05y-4" value="simulation&lt;br&gt;[Executable]" style="html=1;outlineConnect=0;whiteSpace=wrap;fillColor=#AFFFAF;shape=mxgraph.archimate3.application;appType=artifact;archiType=square;" vertex="1" parent="1">
          <mxGeometry x="560" y="240" width="150" height="75" as="geometry" />
        </mxCell>
        <mxCell id="oIPuPfSTGMywHN4HT05y-5" value="main.c&lt;br&gt;[Source file]" style="html=1;outlineConnect=0;whiteSpace=wrap;fillColor=#AFFFAF;shape=mxgraph.archimate3.application;appType=artifact;archiType=square;" vertex="1" parent="1">
          <mxGeometry x="80" y="150" width="150" height="75" as="geometry" />
        </mxCell>
        <mxCell id="oIPuPfSTGMywHN4HT05y-6" value="libmotorway.so&lt;br&gt;[Shared library]" style="html=1;outlineConnect=0;whiteSpace=wrap;fillColor=#AFFFAF;shape=mxgraph.archimate3.application;appType=artifact;archiType=square;" vertex="1" parent="1">
          <mxGeometry x="560" y="405" width="150" height="75" as="geometry" />
        </mxCell>
        <mxCell id="oIPuPfSTGMywHN4HT05y-7" value="lib.c&lt;br&gt;[Source file]" style="html=1;outlineConnect=0;whiteSpace=wrap;fillColor=#AFFFAF;shape=mxgraph.archimate3.application;appType=artifact;archiType=square;" vertex="1" parent="1">
          <mxGeometry x="80" y="425" width="150" height="75" as="geometry" />
        </mxCell>
        <mxCell id="oIPuPfSTGMywHN4HT05y-8" value="Compile executable&lt;br&gt;(make build)" style="html=1;outlineConnect=0;whiteSpace=wrap;fillColor=#AFFFAF;shape=mxgraph.archimate3.application;appType=proc;archiType=rounded;" vertex="1" parent="1">
          <mxGeometry x="330" y="240" width="150" height="75" as="geometry" />
        </mxCell>
        <mxCell id="oIPuPfSTGMywHN4HT05y-9" value="" style="html=1;endArrow=open;elbow=vertical;endFill=0;dashed=1;dashPattern=1 4;rounded=0;exitX=1;exitY=0.5;exitDx=0;exitDy=0;exitPerimeter=0;entryX=0;entryY=0.25;entryDx=0;entryDy=0;entryPerimeter=0;" edge="1" parent="1" source="oIPuPfSTGMywHN4HT05y-5" target="oIPuPfSTGMywHN4HT05y-8">
          <mxGeometry width="160" relative="1" as="geometry">
            <mxPoint x="290" y="370" as="sourcePoint" />
            <mxPoint x="450" y="370" as="targetPoint" />
          </mxGeometry>
        </mxCell>
        <mxCell id="oIPuPfSTGMywHN4HT05y-10" value="" style="html=1;endArrow=open;elbow=vertical;endFill=0;dashed=1;dashPattern=1 4;rounded=0;exitX=1;exitY=0.25;exitDx=0;exitDy=0;exitPerimeter=0;entryX=0;entryY=0.5;entryDx=0;entryDy=0;entryPerimeter=0;" edge="1" parent="1" source="oIPuPfSTGMywHN4HT05y-3" target="oIPuPfSTGMywHN4HT05y-8">
          <mxGeometry width="160" relative="1" as="geometry">
            <mxPoint x="240" y="198" as="sourcePoint" />
            <mxPoint x="340" y="269" as="targetPoint" />
          </mxGeometry>
        </mxCell>
        <mxCell id="oIPuPfSTGMywHN4HT05y-11" value="" style="html=1;endArrow=open;elbow=vertical;endFill=0;dashed=1;dashPattern=1 4;rounded=0;exitX=1;exitY=0.25;exitDx=0;exitDy=0;exitPerimeter=0;entryX=0;entryY=0.75;entryDx=0;entryDy=0;entryPerimeter=0;" edge="1" parent="1" source="oIPuPfSTGMywHN4HT05y-2" target="oIPuPfSTGMywHN4HT05y-8">
          <mxGeometry width="160" relative="1" as="geometry">
            <mxPoint x="250" y="208" as="sourcePoint" />
            <mxPoint x="350" y="279" as="targetPoint" />
          </mxGeometry>
        </mxCell>
        <mxCell id="oIPuPfSTGMywHN4HT05y-12" value="" style="html=1;endArrow=open;elbow=vertical;endFill=0;dashed=1;dashPattern=1 4;rounded=0;exitX=1;exitY=0.5;exitDx=0;exitDy=0;exitPerimeter=0;entryX=0;entryY=0.5;entryDx=0;entryDy=0;entryPerimeter=0;" edge="1" parent="1" source="oIPuPfSTGMywHN4HT05y-8" target="oIPuPfSTGMywHN4HT05y-4">
          <mxGeometry width="160" relative="1" as="geometry">
            <mxPoint x="440" y="180" as="sourcePoint" />
            <mxPoint x="540" y="251" as="targetPoint" />
          </mxGeometry>
        </mxCell>
        <mxCell id="oIPuPfSTGMywHN4HT05y-13" value="Compile shared library&lt;br&gt;(make build)" style="html=1;outlineConnect=0;whiteSpace=wrap;fillColor=#AFFFAF;shape=mxgraph.archimate3.application;appType=proc;archiType=rounded;" vertex="1" parent="1">
          <mxGeometry x="330" y="405" width="150" height="75" as="geometry" />
        </mxCell>
        <mxCell id="oIPuPfSTGMywHN4HT05y-14" value="" style="html=1;endArrow=open;elbow=vertical;endFill=0;dashed=1;dashPattern=1 4;rounded=0;exitX=1;exitY=0.5;exitDx=0;exitDy=0;exitPerimeter=0;entryX=0;entryY=0.5;entryDx=0;entryDy=0;entryPerimeter=0;" edge="1" parent="1" source="oIPuPfSTGMywHN4HT05y-13" target="oIPuPfSTGMywHN4HT05y-6">
          <mxGeometry width="160" relative="1" as="geometry">
            <mxPoint x="490" y="243" as="sourcePoint" />
            <mxPoint x="570" y="243" as="targetPoint" />
          </mxGeometry>
        </mxCell>
        <mxCell id="oIPuPfSTGMywHN4HT05y-15" value="" style="html=1;endArrow=open;elbow=vertical;endFill=0;dashed=1;dashPattern=1 4;rounded=0;exitX=1;exitY=0.5;exitDx=0;exitDy=0;exitPerimeter=0;entryX=0;entryY=0.75;entryDx=0;entryDy=0;entryPerimeter=0;" edge="1" parent="1" source="oIPuPfSTGMywHN4HT05y-7" target="oIPuPfSTGMywHN4HT05y-13">
          <mxGeometry width="160" relative="1" as="geometry">
            <mxPoint x="500" y="253" as="sourcePoint" />
            <mxPoint x="580" y="253" as="targetPoint" />
          </mxGeometry>
        </mxCell>
        <mxCell id="oIPuPfSTGMywHN4HT05y-16" value="" style="html=1;endArrow=open;elbow=vertical;endFill=0;dashed=1;dashPattern=1 4;rounded=0;exitX=1;exitY=0.5;exitDx=0;exitDy=0;exitPerimeter=0;entryX=0;entryY=0.5;entryDx=0;entryDy=0;entryPerimeter=0;" edge="1" parent="1" source="oIPuPfSTGMywHN4HT05y-2" target="oIPuPfSTGMywHN4HT05y-13">
          <mxGeometry width="160" relative="1" as="geometry">
            <mxPoint x="510" y="308" as="sourcePoint" />
            <mxPoint x="590" y="308" as="targetPoint" />
          </mxGeometry>
        </mxCell>
        <mxCell id="oIPuPfSTGMywHN4HT05y-17" value="" style="html=1;endArrow=open;elbow=vertical;endFill=0;dashed=1;dashPattern=1 4;rounded=0;exitX=1;exitY=0.5;exitDx=0;exitDy=0;exitPerimeter=0;entryX=0;entryY=0.25;entryDx=0;entryDy=0;entryPerimeter=0;" edge="1" parent="1" source="oIPuPfSTGMywHN4HT05y-3" target="oIPuPfSTGMywHN4HT05y-13">
          <mxGeometry width="160" relative="1" as="geometry">
            <mxPoint x="520" y="318" as="sourcePoint" />
            <mxPoint x="600" y="318" as="targetPoint" />
          </mxGeometry>
        </mxCell>
        <mxCell id="oIPuPfSTGMywHN4HT05y-18" value="Compile tests&lt;br&gt;(make test)" style="html=1;outlineConnect=0;whiteSpace=wrap;fillColor=#AFFFAF;shape=mxgraph.archimate3.application;appType=proc;archiType=rounded;" vertex="1" parent="1">
          <mxGeometry x="330" y="520" width="150" height="75" as="geometry" />
        </mxCell>
        <mxCell id="oIPuPfSTGMywHN4HT05y-19" value="test&lt;br&gt;[Executable]" style="html=1;outlineConnect=0;whiteSpace=wrap;fillColor=#AFFFAF;shape=mxgraph.archimate3.application;appType=artifact;archiType=square;" vertex="1" parent="1">
          <mxGeometry x="560" y="520" width="150" height="75" as="geometry" />
        </mxCell>
        <mxCell id="oIPuPfSTGMywHN4HT05y-20" value="" style="html=1;endArrow=open;elbow=vertical;endFill=0;dashed=1;dashPattern=1 4;rounded=0;exitX=1;exitY=0.5;exitDx=0;exitDy=0;exitPerimeter=0;entryX=0;entryY=0.5;entryDx=0;entryDy=0;entryPerimeter=0;" edge="1" parent="1" source="oIPuPfSTGMywHN4HT05y-18" target="oIPuPfSTGMywHN4HT05y-19">
          <mxGeometry width="160" relative="1" as="geometry">
            <mxPoint x="490" y="453" as="sourcePoint" />
            <mxPoint x="570" y="453" as="targetPoint" />
          </mxGeometry>
        </mxCell>
        <mxCell id="oIPuPfSTGMywHN4HT05y-21" value="" style="html=1;endArrow=open;elbow=vertical;endFill=0;dashed=1;dashPattern=1 4;rounded=0;exitX=1;exitY=0.75;exitDx=0;exitDy=0;exitPerimeter=0;entryX=0;entryY=0.75;entryDx=0;entryDy=0;entryPerimeter=0;" edge="1" parent="1" source="oIPuPfSTGMywHN4HT05y-1" target="oIPuPfSTGMywHN4HT05y-18">
          <mxGeometry width="160" relative="1" as="geometry">
            <mxPoint x="500" y="463" as="sourcePoint" />
            <mxPoint x="580" y="463" as="targetPoint" />
          </mxGeometry>
        </mxCell>
        <mxCell id="oIPuPfSTGMywHN4HT05y-22" value="" style="html=1;endArrow=open;elbow=vertical;endFill=0;dashed=1;dashPattern=1 4;rounded=0;exitX=1;exitY=0.75;exitDx=0;exitDy=0;exitPerimeter=0;entryX=0;entryY=0.5;entryDx=0;entryDy=0;entryPerimeter=0;" edge="1" parent="1" source="oIPuPfSTGMywHN4HT05y-2" target="oIPuPfSTGMywHN4HT05y-18">
          <mxGeometry width="160" relative="1" as="geometry">
            <mxPoint x="240" y="473" as="sourcePoint" />
            <mxPoint x="340" y="471" as="targetPoint" />
          </mxGeometry>
        </mxCell>
        <mxCell id="oIPuPfSTGMywHN4HT05y-23" value="" style="html=1;endArrow=open;elbow=vertical;endFill=0;dashed=1;dashPattern=1 4;rounded=0;entryX=0;entryY=0.25;entryDx=0;entryDy=0;entryPerimeter=0;exitX=1;exitY=0.75;exitDx=0;exitDy=0;exitPerimeter=0;" edge="1" parent="1" source="oIPuPfSTGMywHN4HT05y-3" target="oIPuPfSTGMywHN4HT05y-18">
          <mxGeometry width="160" relative="1" as="geometry">
            <mxPoint x="270" y="300" as="sourcePoint" />
            <mxPoint x="340" y="568" as="targetPoint" />
          </mxGeometry>
        </mxCell>
        <mxCell id="oIPuPfSTGMywHN4HT05y-24" value="analysis.py" style="html=1;outlineConnect=0;whiteSpace=wrap;fillColor=#AFFFAF;shape=mxgraph.archimate3.application;appType=artifact;archiType=square;" vertex="1" parent="1">
          <mxGeometry x="800" y="405" width="150" height="75" as="geometry" />
        </mxCell>
        <mxCell id="oIPuPfSTGMywHN4HT05y-25" value="" style="html=1;endArrow=open;elbow=vertical;endFill=0;dashed=1;dashPattern=1 4;rounded=0;exitX=0;exitY=0.5;exitDx=0;exitDy=0;exitPerimeter=0;entryX=1;entryY=0.5;entryDx=0;entryDy=0;entryPerimeter=0;" edge="1" parent="1" source="oIPuPfSTGMywHN4HT05y-24" target="oIPuPfSTGMywHN4HT05y-6">
          <mxGeometry width="160" relative="1" as="geometry">
            <mxPoint x="490" y="453" as="sourcePoint" />
            <mxPoint x="570" y="453" as="targetPoint" />
          </mxGeometry>
        </mxCell>
      </root>
    </mxGraphModel>
  </diagram>
</mxfile>
